<svg xmlns="http://www.w3.org/2000/svg" viewBox="0 0 200 200" aria-hidden="true"><circle cx="100" cy="100" r="92" fill="none" stroke="#4DD9D5" stroke-width="2.5" stroke-dasharray="138.5 6"/><circle cx="100" cy="100" r="67" fill="none" stroke="#4DD9D5" stroke-width="1.2" stroke-dasharray="43.6 9" opacity=".8"/><g transform="translate(106.9 21.3) rotate(5.0)" stroke="#4DD9D5" stroke-linecap="round"><circle cx="0" cy="-2.2" r="2.2" fill="none" stroke-width="1.6"/><path d="M2.2 -2.2 H7" stroke-width="1.6"/></g><g transform="translate(120.4 23.7) rotate(15.0)" stroke="#4DD9D5" stroke-linecap="round"><path d="M-3 3 V-3 H3" fill="none" stroke-width="1.6"/></g><g transform="translate(133.4 28.4) rotate(25.0)" stroke="#4DD9D5" stroke-linecap="round"><path d="M0 -3.2 L2.6 0 L0 3.2 L-2.6 0 Z" fill="none" stroke-width="1.5"/></g><g transform="translate(145.3 35.3) rotate(35.0)" stroke="#4DD9D5" stroke-linecap="round"><path d="M-2 -3 V3 H3" fill="none" stroke-width="1.6"/></g><g transform="translate(155.9 44.1) rotate(45.0)" stroke="#4DD9D5" stroke-linecap="round"><path d="M-3 -3 H3 M0 -3 V3" fill="none" stroke-width="1.6"/></g><g transform="translate(164.7 54.7) rotate(55.0)" stroke="#4DD9D5" stroke-linecap="round"><path d="M-3 0 H3 M-1.5 -3 V3" fill="none" stroke-width="1.6"/></g><g transform="translate(171.6 66.6) rotate(65.0)" stroke="#4DD9D5" stroke-linecap="round"><path d="M-3 3 V-3 H3" fill="none" stroke-width="1.6"/></g><g transform="translate(176.3 79.6) rotate(75.0)" stroke="#4DD9D5" stroke-linecap="round"><circle cx="0" cy="-2.2" r="2.2" fill="none" stroke-width="1.6"/><path d="M2.2 -2.2 H7" stroke-width="1.6"/></g><g transform="translate(178.7 93.1) rotate(85.0)" stroke="#4DD9D5" stroke-linecap="round"><path d="M-2 -3 V3 H3" fill="none" stroke-width="1.6"/></g><g transform="translate(178.7 106.9) rotate(95.0)" stroke="#4DD9D5" stroke-linecap="round"><path d="M0 -3.2 L2.6 0 L0 3.2 L-2.6 0 Z" fill="none" stroke-width="1.5"/></g><g transform="translate(176.3 120.4) rotate(105.0)" stroke="#4DD9D5" stroke-linecap="round"><path d="M-3 0 H3 M-1.5 -3 V3" fill="none" stroke-width="1.6"/></g><g transform="translate(171.6 133.4) rotate(115.0)" stroke="#4DD9D5" stroke-linecap="round"><path d="M-3 -3 H3 M0 -3 V3" fill="none" stroke-width="1.6"/></g><g transform="translate(164.7 145.3) rotate(125.0)" stroke="#4DD9D5" stroke-linecap="round"><circle cx="0" cy="-2.2" r="2.2" fill="none" stroke-width="1.6"/><path d="M2.2 -2.2 H7" stroke-width="1.6"/></g><g transform="translate(155.9 155.9) rotate(135.0)" stroke="#4DD9D5" stroke-linecap="round"><path d="M-3 3 V-3 H3" fill="none" stroke-width="1.6"/></g><g transform="translate(145.3 164.7) rotate(145.0)" stroke="#4DD9D5" stroke-linecap="round"><path d="M0 -3.2 L2.6 0 L0 3.2 L-2.6 0 Z" fill="none" stroke-width="1.5"/></g><g transform="translate(133.4 171.6) rotate(155.0)" stroke="#4DD9D5" stroke-linecap="round"><path d="M-2 -3 V3 H3" fill="none" stroke-width="1.6"/></g><g transform="translate(120.4 176.3) rotate(165.0)" stroke="#4DD9D5" stroke-linecap="round"><path d="M-3 -3 H3 M0 -3 V3" fill="none" stroke-width="1.6"/></g><g transform="translate(106.9 178.7) rotate(175.0)" stroke="#4DD9D5" stroke-linecap="round"><path d="M-3 0 H3 M-1.5 -3 V3" fill="none" stroke-width="1.6"/></g><g transform="translate(93.1 178.7) rotate(185.0)" stroke="#4DD9D5" stroke-linecap="round"><path d="M-3 3 V-3 H3" fill="none" stroke-width="1.6"/></g><g transform="translate(79.6 176.3) rotate(195.0)" stroke="#4DD9D5" stroke-linecap="round"><circle cx="0" cy="-2.2" r="2.2" fill="none" stroke-width="1.6"/><path d="M2.2 -2.2 H7" stroke-width="1.6"/></g><g transform="translate(66.6 171.6) rotate(205.0)" stroke="#4DD9D5" stroke-linecap="round"><path d="M-2 -3 V3 H3" fill="none" stroke-width="1.6"/></g><g transform="translate(54.7 164.7) rotate(215.0)" stroke="#4DD9D5" stroke-linecap="round"><path d="M0 -3.2 L2.6 0 L0 3.2 L-2.6 0 Z" fill="none" stroke-width="1.5"/></g><g transform="translate(44.1 155.9) rotate(225.0)" stroke="#4DD9D5" stroke-linecap="round"><path d="M-3 0 H3 M-1.5 -3 V3" fill="none" stroke-width="1.6"/></g><g transform="translate(35.3 145.3) rotate(235.0)" stroke="#4DD9D5" stroke-linecap="round"><path d="M-3 -3 H3 M0 -3 V3" fill="none" stroke-width="1.6"/></g><g transform="translate(28.4 133.4) rotate(245.0)" stroke="#4DD9D5" stroke-linecap="round"><circle cx="0" cy="-2.2" r="2.2" fill="none" stroke-width="1.6"/><path d="M2.2 -2.2 H7" stroke-width="1.6"/></g><g transform="translate(23.7 120.4) rotate(255.0)" stroke="#4DD9D5" stroke-linecap="round"><path d="M-3 3 V-3 H3" fill="none" stroke-width="1.6"/></g><g transform="translate(21.3 106.9) rotate(265.0)" stroke="#4DD9D5" stroke-linecap="round"><path d="M0 -3.2 L2.6 0 L0 3.2 L-2.6 0 Z" fill="none" stroke-width="1.5"/></g><g transform="translate(21.3 93.1) rotate(275.0)" stroke="#4DD9D5" stroke-linecap="round"><path d="M-2 -3 V3 H3" fill="none" stroke-width="1.6"/></g><g transform="translate(23.7 79.6) rotate(285.0)" stroke="#4DD9D5" stroke-linecap="round"><path d="M-3 -3 H3 M0 -3 V3" fill="none" stroke-width="1.6"/></g><g transform="translate(28.4 66.6) rotate(295.0)" stroke="#4DD9D5" stroke-linecap="round"><path d="M-3 0 H3 M-1.5 -3 V3" fill="none" stroke-width="1.6"/></g><g transform="translate(35.3 54.7) rotate(305.0)" stroke="#4DD9D5" stroke-linecap="round"><path d="M-3 3 V-3 H3" fill="none" stroke-width="1.6"/></g><g transform="translate(44.1 44.1) rotate(315.0)" stroke="#4DD9D5" stroke-linecap="round"><circle cx="0" cy="-2.2" r="2.2" fill="none" stroke-width="1.6"/><path d="M2.2 -2.2 H7" stroke-width="1.6"/></g><g transform="translate(54.7 35.3) rotate(325.0)" stroke="#4DD9D5" stroke-linecap="round"><path d="M-2 -3 V3 H3" fill="none" stroke-width="1.6"/></g><g transform="translate(66.6 28.4) rotate(335.0)" stroke="#4DD9D5" stroke-linecap="round"><path d="M0 -3.2 L2.6 0 L0 3.2 L-2.6 0 Z" fill="none" stroke-width="1.5"/></g><g transform="translate(79.6 23.7) rotate(345.0)" stroke="#4DD9D5" stroke-linecap="round"><path d="M-3 0 H3 M-1.5 -3 V3" fill="none" stroke-width="1.6"/></g><g transform="translate(93.1 21.3) rotate(355.0)" stroke="#4DD9D5" stroke-linecap="round"><path d="M-3 -3 H3 M0 -3 V3" fill="none" stroke-width="1.6"/></g></svg>